<svg width="40" height="40" viewBox="0 0 40 40" fill="none" xmlns="http://www.w3.org/2000/svg">
<rect x="0.5" y="0.5" width="39" height="39" rx="3.5" fill="#F3F3F3"/>
<rect x="0.5" y="0.5" width="39" height="39" rx="3.5" stroke="#E1D9EE"/>
<g clip-path="url(#clip0_565_7196)">
<path d="M16.785 28.705C15.6735 28.39 14.104 26.65 13.355 25.0395C13.2635 24.844 12.8045 24.703 12.7225 24.4975C11.477 21.3875 11.319 17.27 14.1715 14.417C17.376 11.2125 21.269 10.8525 24.409 11.8785C24.634 11.952 24.8275 12.4355 25.052 12.478C28.0105 13.0355 29.213 16.2525 27.9315 15.886C27.332 15.715 26.603 15.6075 26.0245 15.672C25.806 15.6965 25.499 16.118 25.2525 16.153C24.869 16.208 23.9325 16.259 23.4705 16.3055C18.891 16.7635 17.273 19.791 17.065 23.4335C17.042 23.8375 16.7565 23.745 16.7 24.075C16.528 25.071 17.2445 26.517 17.586 27.5445C17.883 28.4415 17.8955 29.02 16.785 28.705Z" fill="#F4900C"/>
<path d="M13.0649 15.826C12.3454 16.9925 11.9859 18.279 11.8984 19.5785C13.2059 18.829 15.0654 18.2525 18.0949 19.4885C18.484 18.7825 19.016 18.1654 19.6569 17.6765C19.1609 17.2105 18.6609 16.854 18.2859 16.7655C17.0454 16.4715 14.7009 15.659 13.0649 15.826ZM12.9394 24.7105C13.1014 24.818 13.2989 24.9185 13.3554 25.0395C13.3721 25.0741 13.3893 25.109 13.4069 25.144C14.3669 24.589 15.6169 24.2905 16.6834 24.323C16.6864 24.2395 16.6859 24.1535 16.6994 24.075C16.7469 23.799 16.9524 23.815 17.0329 23.5925C14.5894 23.063 13.6579 23.9985 12.9394 24.7105ZM25.4504 12.5785C25.3204 12.5415 25.1904 12.5045 25.0524 12.4785C24.9679 12.4625 24.8874 12.3835 24.8079 12.2875C25.2669 13.349 25.7574 14.8035 25.3199 16.132C25.5534 16.043 25.8254 15.6945 26.0244 15.6725C26.0579 15.669 26.0959 15.671 26.1299 15.6685C26.2329 14.8165 25.9879 13.565 25.4504 12.5785Z" fill="#DB7803"/>
<path d="M12.0199 18.4575C11.5429 16.8315 12.2104 12.147 18.3304 11C19.3969 11 23.3969 11.636 21.5939 19.1285C21.3144 20.291 20.6954 20.498 19.8129 19.931C17.7499 18.607 14.0119 16.3815 12.0199 18.4575Z" fill="#FFAC33"/>
</g>
<defs>
<clipPath id="clip0_565_7196">
<rect width="18" height="18" fill="white" transform="translate(11 11)"/>
</clipPath>
</defs>
</svg>
