<svg width="40" height="40" viewBox="0 0 40 40" fill="none" xmlns="http://www.w3.org/2000/svg">
<rect x="0.5" y="0.5" width="39" height="39" rx="3.5" fill="#F3F3F3"/>
<rect x="0.5" y="0.5" width="39" height="39" rx="3.5" stroke="#E1D9EE"/>
<path d="M14.375 18.3125C13.7783 18.3125 13.206 18.5496 12.784 18.9715C12.3621 19.3935 12.125 19.9658 12.125 20.5625C12.125 21.1592 12.3621 21.7315 12.784 22.1535C13.206 22.5754 13.7783 22.8125 14.375 22.8125H25.625C26.2217 22.8125 26.794 22.5754 27.216 22.1535C27.6379 21.7315 27.875 21.1592 27.875 20.5625C27.875 19.9658 27.6379 19.3935 27.216 18.9715C26.794 18.5496 26.2217 18.3125 25.625 18.3125H14.375ZM13.25 20.5625C13.25 20.2641 13.3685 19.978 13.5795 19.767C13.7905 19.556 14.0766 19.4375 14.375 19.4375H16.625V21.6875H14.375C14.0766 21.6875 13.7905 21.569 13.5795 21.358C13.3685 21.147 13.25 20.8609 13.25 20.5625ZM25.625 21.6875H23.375V19.4375H25.625C25.9234 19.4375 26.2095 19.556 26.4205 19.767C26.6315 19.978 26.75 20.2641 26.75 20.5625C26.75 20.8609 26.6315 21.147 26.4205 21.358C26.2095 21.569 25.9234 21.6875 25.625 21.6875Z" fill="#B4ACBC"/>
<path d="M14.9375 18.875H25.0625V22.8125C25.0625 24.1552 24.5291 25.4428 23.5797 26.3922C22.6303 27.3416 21.3427 27.875 20 27.875C18.6573 27.875 17.3697 27.3416 16.4203 26.3922C15.4709 25.4428 14.9375 24.1552 14.9375 22.8125V18.875Z" fill="#CDC4D6"/>
<path d="M25.0625 18.875C25.0625 20.2177 24.5291 21.5053 23.5797 22.4547C22.6303 23.4041 21.3427 23.9375 20 23.9375C18.6573 23.9375 17.3697 23.4041 16.4203 22.4547C15.4709 21.5053 14.9375 20.2177 14.9375 18.875C14.9375 17.5323 15.4709 16.2447 16.4203 15.2953C17.3697 14.3459 18.6573 13.8125 20 13.8125C21.3427 13.8125 22.6303 14.3459 23.5797 15.2953C24.5291 16.2447 25.0625 17.5323 25.0625 18.875Z" fill="#E1D8EC"/>
<path d="M24.5 18.875C24.5 20.0685 24.0259 21.2131 23.182 22.057C22.3381 22.9009 21.1935 23.375 20 23.375C18.8065 23.375 17.6619 22.9009 16.818 22.057C15.9741 21.2131 15.5 20.0685 15.5 18.875C15.5 17.6815 15.9741 16.5369 16.818 15.693C17.6619 14.8491 18.8065 14.375 20 14.375C21.1935 14.375 22.3381 14.8491 23.182 15.693C24.0259 16.5369 24.5 17.6815 24.5 18.875Z" fill="#FF6723"/>
<path d="M21.125 21.125C21.125 20.8266 21.2435 20.5405 21.4545 20.3295C21.6655 20.1185 21.9516 20 22.25 20C22.5484 20 22.8345 20.1185 23.0455 20.3295C23.2565 20.5405 23.375 20.8266 23.375 21.125H21.125ZM17.1875 21.6875C17.1875 21.5383 17.2468 21.3952 17.3523 21.2898C17.4577 21.1843 17.6008 21.125 17.75 21.125C17.8992 21.125 18.0423 21.1843 18.1477 21.2898C18.2532 21.3952 18.3125 21.5383 18.3125 21.6875H17.1875Z" fill="#FCD53F"/>
<path d="M22.25 16.625C21.9516 16.625 21.6655 16.7435 21.4545 16.9545C21.2435 17.1655 21.125 17.4516 21.125 17.75C21.125 17.6008 21.0657 17.4577 20.9602 17.3523C20.8548 17.2468 20.7117 17.1875 20.5625 17.1875C20.4133 17.1875 20.2702 17.2468 20.1648 17.3523C20.0593 17.4577 20 17.6008 20 17.75H23.375C23.375 17.4516 23.2565 17.1655 23.0455 16.9545C22.8345 16.7435 22.5484 16.625 22.25 16.625ZM18.875 22.8125C18.875 22.5141 18.9935 22.228 19.2045 22.017C19.4155 21.806 19.7016 21.6875 20 21.6875C20.2984 21.6875 20.5845 21.806 20.7955 22.017C21.0065 22.228 21.125 22.5141 21.125 22.8125H18.875Z" fill="#00D26A"/>
<path d="M19.8594 16.0625C19.8594 16.1744 19.8149 16.2817 19.7358 16.3608C19.6567 16.4399 19.5494 16.4844 19.4375 16.4844C19.3256 16.4844 19.2183 16.4399 19.1392 16.3608C19.0601 16.2817 19.0156 16.1744 19.0156 16.0625C19.0156 15.9506 19.0601 15.8433 19.1392 15.7642C19.2183 15.6851 19.3256 15.6406 19.4375 15.6406C19.5494 15.6406 19.6567 15.6851 19.7358 15.7642C19.8149 15.8433 19.8594 15.9506 19.8594 16.0625ZM17.0469 20C17.0469 20.1119 17.0024 20.2192 16.9233 20.2983C16.8442 20.3774 16.7369 20.4219 16.625 20.4219C16.5131 20.4219 16.4058 20.3774 16.3267 20.2983C16.2476 20.2192 16.2031 20.1119 16.2031 20C16.2031 19.8881 16.2476 19.7808 16.3267 19.7017C16.4058 19.6226 16.5131 19.5781 16.625 19.5781C16.7369 19.5781 16.8442 19.6226 16.9233 19.7017C17.0024 19.7808 17.0469 19.8881 17.0469 20ZM22.8125 19.2969C22.9244 19.2969 23.0317 19.2524 23.1108 19.1733C23.1899 19.0942 23.2344 18.9869 23.2344 18.875C23.2344 18.7631 23.1899 18.6558 23.1108 18.5767C23.0317 18.4976 22.9244 18.4531 22.8125 18.4531C22.7006 18.4531 22.5933 18.4976 22.5142 18.5767C22.4351 18.6558 22.3906 18.7631 22.3906 18.875C22.3906 18.9869 22.4351 19.0942 22.5142 19.1733C22.5933 19.2524 22.7006 19.2969 22.8125 19.2969Z" fill="#990838"/>
<path d="M18.0664 17.1738C18.6103 17.1738 19.0508 17.6143 19.0508 18.1582C19.0508 18.4676 19.3017 18.7179 19.6105 18.7179C19.8715 18.7179 20.1219 18.8216 20.3065 19.0062C20.4911 19.1908 20.5948 19.4412 20.5948 19.7023C20.5948 19.9633 20.4911 20.2137 20.3065 20.3983C20.1219 20.5829 19.8715 20.6866 19.6105 20.6866C18.9399 20.6866 18.2968 20.4203 17.8226 19.9461C17.3484 19.4719 17.082 18.8288 17.082 18.1582C17.082 17.6143 17.523 17.1738 18.0664 17.1738Z" fill="#7D4533"/>
</svg>
