<svg width="16" height="16" viewBox="0 0 16 16" fill="none" xmlns="http://www.w3.org/2000/svg">
<path d="M5.66732 9.66667C6.10935 9.66667 6.53327 9.49107 6.84583 9.17851C7.15839 8.86595 7.33398 8.44203 7.33398 8C7.33398 7.08 7.00065 6.66667 6.66732 6C5.95265 4.57133 6.51798 3.29733 8.00065 2C8.33398 3.66667 9.33398 5.26667 10.6673 6.33333C12.0007 7.4 12.6673 8.66667 12.6673 10C12.6673 10.6128 12.5466 11.2197 12.3121 11.7859C12.0776 12.352 11.7338 12.8665 11.3005 13.2998C10.8671 13.7332 10.3527 14.0769 9.78651 14.3114C9.22032 14.546 8.61349 14.6667 8.00065 14.6667C7.38782 14.6667 6.78098 14.546 6.21479 14.3114C5.64861 14.0769 5.13416 13.7332 4.70082 13.2998C4.26748 12.8665 3.92374 12.352 3.68921 11.7859C3.45469 11.2197 3.33398 10.6128 3.33398 10C3.33398 9.23133 3.62265 8.47067 4.00065 8C4.00065 8.44203 4.17625 8.86595 4.48881 9.17851C4.80137 9.49107 5.22529 9.66667 5.66732 9.66667Z" stroke="#5A4D6A" stroke-width="2" stroke-linecap="round" stroke-linejoin="round"/>
</svg>
