<svg width="40" height="40" viewBox="0 0 40 40" fill="none" xmlns="http://www.w3.org/2000/svg">
<rect x="0.5" y="0.5" width="39" height="39" rx="3.5" fill="#F3F3F3"/>
<rect x="0.5" y="0.5" width="39" height="39" rx="3.5" stroke="#E1D9EE"/>
<path d="M27.9914 22.0784C27.8508 22.3751 25.9355 24.0204 24.7387 25.0526C23.542 26.0848 22.1808 26.9918 22.1808 26.9918L21.1289 26.93L21.3145 18.162L27.8128 20.2868C27.8128 20.2868 28.0069 20.4176 28.028 20.727C28.0477 21.0364 28.1095 21.8295 27.9914 22.0784Z" fill="#D46F1E"/>
<path d="M12.7109 22.4948C12.5872 22.5159 12.3608 22.5356 12.2778 22.9898C12.1948 23.444 12.2792 24.3609 12.6097 24.6913C13.3142 25.3959 14.2747 25.6167 15.0214 25.6926C15.6823 25.7601 16.0592 25.6954 16.2434 25.8009C16.564 25.9865 16.5711 26.3592 17.405 26.8443C18.035 27.2113 19.1319 27.5559 19.894 27.5559C21.1625 27.5559 22.1792 26.992 22.1792 26.992L22.1581 25.2384L21.4156 21.2151L12.7109 22.4948Z" fill="#E48216"/>
<path d="M13.5554 24.0005C14.9462 24.5306 16.6703 24.3309 16.6703 24.3309C16.6703 24.3309 17.0626 25.1972 18.4449 25.6514C19.8273 26.1056 21.519 25.8778 22.6131 25.1156C23.7071 24.3534 25.5845 22.5984 26.2229 22.0627C26.8614 21.5269 27.7501 20.7211 27.7698 20.5158C27.7895 20.3105 24.2007 17.5022 24.2007 17.5022C24.2007 17.5022 12.9071 22.6463 12.6624 22.8052C12.4796 22.9261 12.6892 23.67 13.5554 24.0005Z" fill="#FADFB1"/>
<path d="M13.0808 21.5046C13.0808 21.5046 12.3594 21.5454 12.3594 22.0404C12.3594 22.5354 12.628 22.9488 13.3086 23.2582C13.9892 23.5676 15.4545 23.9599 16.6091 24.2285C17.7791 24.4999 19.5594 25.5082 20.6112 25.6108C21.6378 25.7121 22.4478 24.8262 22.9217 24.393C23.3956 23.9599 25.7483 22.1444 26.2841 21.6073C26.8198 21.0715 27.9547 19.8537 27.9547 19.8537L20.1978 17.0271L13.0808 21.5046Z" fill="#EC8B7A"/>
<path d="M13.6745 22.2544C13.6745 22.2544 13.3904 22.2417 13.209 22.2024C13.0276 22.163 12.7041 22.0336 12.7435 22.177C12.7829 22.3205 13.0867 22.6214 13.6745 22.8886C14.3087 23.1755 15.1299 23.2303 15.1187 23.2036C15.1187 23.2036 15.5349 23.5341 16.0018 23.6831C16.5713 23.8645 17.1662 24.0347 17.6176 24.0741C18.0465 24.112 18.1238 24.0263 17.9692 23.8702C17.8145 23.7141 17.3996 23.4567 17.3996 23.4567L15.2002 22.1503L13.6745 22.2544ZM18.526 24.1683C18.5092 24.3145 19.1856 24.6731 19.6777 24.8799C20.1699 25.0866 21.0334 25.3566 20.9841 24.7378C20.9504 24.3145 20.4188 24.2681 19.8198 24.2077C19.1898 24.1444 18.5401 24.0488 18.526 24.1683Z" fill="#D45E51"/>
<path d="M12.7822 19.0972C12.7822 19.0972 12.096 20.391 11.8639 20.339C11.6319 20.2869 11.5278 20.1322 11.4238 20.2616C11.3197 20.391 11.3071 21.374 11.8513 21.53C12.3955 21.6861 12.4686 21.4963 12.7921 21.6383C13.1155 21.7804 13.5303 22.0166 13.5303 22.0166C13.5303 22.0166 13.2772 22.236 13.3152 22.3007C13.3531 22.3654 13.7652 22.5679 13.9592 22.7493C14.1533 22.9307 14.1899 23.1304 15.0702 23.2724C15.9505 23.4144 16.16 23.4046 16.4835 23.3666C16.8069 23.3286 16.9363 23.1725 16.9363 23.1725C16.9363 23.1725 17.4017 23.7941 17.8672 23.8194C18.3327 23.8447 18.462 23.69 18.6181 23.69C18.7742 23.69 18.5408 23.8447 19.0316 23.8447C19.5224 23.8447 20.0849 23.8897 20.7374 24.0669C21.1972 24.1921 21.6317 24.659 21.9299 24.763C22.228 24.8671 22.6667 24.7757 22.7961 24.6336C22.9255 24.4916 22.9227 24.1499 23.1674 23.8925C23.412 23.6352 24.0505 23.3075 24.2699 23.0741C24.4892 22.8407 24.6327 22.1108 24.6327 22.1108C24.6327 22.1108 24.9308 22.3443 25.1896 22.2922C25.4483 22.2402 25.7464 21.7874 25.9785 21.7494C26.2105 21.7115 26.4439 21.6454 26.6647 21.426C26.8855 21.2066 26.7941 20.6244 26.9361 20.5204C27.0781 20.4163 27.6224 20.7397 27.9064 20.6624C28.1905 20.585 28.4633 20.1702 28.3986 19.8988C28.3339 19.6274 28.2692 19.588 28.2692 19.4333C28.2692 19.2786 28.438 19.0199 28.2299 18.7611C28.0217 18.5024 24.4766 17.0919 24.4766 17.0919L12.7822 19.0972Z" fill="#B7D019"/>
<path d="M13.9587 21.2443C13.9587 21.2443 13.7899 21.6198 13.8546 21.6971C13.9193 21.7745 14.877 22.5634 15.109 22.5901C15.341 22.6168 17.0243 22.5507 17.0243 22.5507L16.3001 21.2443H13.9587ZM20.0393 21.4778C20.0393 21.4778 19.3024 23.0949 19.3924 23.237C19.4824 23.379 20.2081 23.4057 20.8282 23.5731C21.4484 23.7404 21.6298 23.8318 21.8379 23.8192C22.046 23.8065 22.8982 23.327 22.9123 23.1723C22.9263 23.0176 22.2527 22.2413 22.2527 22.2413L20.0393 21.4778ZM24.3213 20.9856L24.0626 21.6578C24.0626 21.6578 25.2663 21.7351 25.8091 21.4763C26.352 21.2176 26.7457 20.2796 26.9145 19.9956C27.1479 19.6046 27.477 19.2671 27.4502 19.1251C27.4235 18.9831 26.5981 18.436 26.5981 18.436L24.3213 20.9856Z" fill="#96A819"/>
<path d="M24.425 21.1277C24.425 21.1277 23.1186 21.4638 23.0919 21.5412C23.0652 21.6185 21.8755 22.9249 21.8755 22.9249C21.8755 22.9249 22.7558 23.3524 23.7388 22.7955C24.7217 22.2415 24.425 21.1277 24.425 21.1277ZM27.62 17.2732C27.62 17.2732 28.3316 17.4673 28.2149 18.3476C28.0785 19.3769 26.3389 19.3305 26.3389 19.3305C26.3389 19.3305 25.8735 18.0888 25.9508 18.0241C26.0281 17.9594 27.62 17.2732 27.62 17.2732ZM17.2967 21.2318L16.2491 21.7746C16.2491 21.7746 16.4178 22.8743 18.1644 23.1724C19.911 23.4705 20.8813 21.956 20.8813 21.956L17.2967 21.2318ZM14.1524 20.1068L13.0006 20.1588C13.0006 20.1588 12.9585 20.9055 13.5575 21.3358C14.3042 21.8716 15.3941 21.6199 15.3941 21.6199L14.1524 20.1068Z" fill="#DC0D2A"/>
<path d="M16.2873 19.8735L14.0879 20.4304C14.0879 20.4304 15.2002 21.9056 15.6404 21.9435C16.0805 21.9815 18.2532 21.5301 18.2532 21.5301L16.2873 19.8735ZM19.599 22.0982C19.599 22.0982 20.9588 23.1965 21.579 23.1459C22.0571 23.1065 22.6618 22.2684 23.4521 21.8409C24.2424 21.4134 25.4363 21.0998 25.6416 20.9465C26.048 20.6427 26.612 18.9806 26.8834 18.5924C27.1548 18.2043 27.8284 17.3113 27.841 17.1693C27.8537 17.0273 27.7243 16.5745 27.7243 16.5745L22.5873 20.6498L19.599 22.0982Z" fill="#FEDF64"/>
<path d="M20.6992 21.8914C20.7639 21.8787 22.0183 22.0207 22.0183 22.0207C22.0183 22.0207 23.0322 21.236 24.5847 19.955C26.1372 18.6739 27.5842 17.2901 27.9077 16.7276C28.0005 16.5673 28.0412 15.5801 28.0455 15.3326C28.0539 14.9023 27.8148 14.8221 27.8148 14.8221L20.8398 19.8214L20.6992 21.8914Z" fill="#D46F1E"/>
<path d="M22.033 20.0931C22.033 20.2224 22.1188 21.9381 22.0203 22.021C21.7869 22.2151 19.7436 22.7846 18.0097 21.9957C16.3433 21.2377 16.055 20.5599 16.055 20.5599C16.055 20.5599 13.9428 20.8004 12.6913 20.0945C11.8897 19.6416 11.8503 18.7613 11.863 18.3085C11.8757 17.8557 11.9277 17.4282 12.1091 17.2341C12.2905 17.0401 14.6586 15.0615 15.1635 14.6607C15.6683 14.2599 17.9183 12.6034 18.2685 12.5387C18.6186 12.474 21.6196 13.0562 22.6278 13.2896C23.6361 13.5231 26.5738 14.2852 27.0786 14.4793C27.5835 14.6734 27.8943 14.7901 27.9069 14.9321C27.9196 15.0741 27.7649 15.2949 27.5835 15.4496C27.4021 15.6043 23.5082 15.3976 23.4055 16.1091C23.3028 16.8207 22.033 20.0931 22.033 20.0931Z" fill="#E38211"/>
<path d="M18.333 12.8674C17.9406 12.9363 15.7286 14.6801 15.1042 15.1821C14.4798 15.6841 12.8655 16.9948 12.5912 17.238C12.317 17.4813 12.0119 18.3799 13.352 18.8974C14.6922 19.4149 16.5653 19.1716 16.5653 19.1716C16.5653 19.1716 17.2361 20.4809 18.835 20.6496C20.4339 20.8184 21.5308 20.7565 22.2311 20.1926C22.9314 19.6287 25.2615 17.6487 25.7945 17.1621C26.3275 16.6741 27.6944 15.4577 27.6676 15.289C27.5917 14.801 23.8455 13.9798 22.2465 13.6141C20.8051 13.2837 18.6831 12.8069 18.333 12.8674Z" fill="#FADFB1"/>
</svg>
