<svg width="156" height="54" viewBox="0 0 156 54" fill="none" xmlns="http://www.w3.org/2000/svg">
<g clip-path="url(#clip0_375_1217)">
<path d="M143.761 7.31526C143.816 6.94823 143.82 6.5812 143.934 6.25213C144.136 5.67838 144.318 5.06245 144.668 4.58151C145.128 3.95713 145.854 3.97401 146.68 4.48448C146.836 4.1301 146.921 3.71666 147.161 3.43823C147.604 2.92354 148.068 2.36245 148.646 2.04604C149.469 1.59463 150.013 1.95323 150.608 3.14713C151.519 2.78432 152.506 2.02073 153.414 2.9826C154.257 3.87698 153.595 4.80932 153.156 5.72479C153.346 5.81338 153.502 5.8851 153.658 5.96526C154.472 6.3787 154.772 7.21823 154.156 7.96916C153.561 8.69479 152.717 9.2137 151.958 9.84229C152.793 11.1923 152.173 11.8462 149.245 12.5549C149.157 13.0992 149.224 13.6814 148.975 14.0357C148.57 14.6053 147.874 14.4956 147.258 14.3015C146.022 13.9134 144.849 14.0948 143.744 14.7149C142.812 15.2423 141.905 15.8203 141.065 16.4826C142.318 16.2464 143.559 15.9004 144.824 15.7992C146.259 15.6853 147.71 15.757 149.153 15.8287C149.507 15.8456 149.836 16.1957 150.19 16.3645C150.477 16.4995 150.777 16.6134 151.081 16.6935C152.101 16.9551 152.321 17.2251 152.3 18.2714C153.11 18.6004 153.57 19.1151 153.093 20.0559C153.046 20.1445 153.156 20.3301 153.224 20.4524C153.3 20.5874 153.418 20.6929 153.506 20.8195C153.987 21.4987 154.401 22.2454 153.928 23.0385C153.43 23.8781 152.54 23.9329 151.654 23.8274C151.426 23.8021 151.203 23.7557 150.988 23.722C150.566 24.8357 149.958 25.0214 149.001 24.3126C148.591 24.0089 148.246 23.6123 147.87 23.2579C146.638 24.1987 146.204 24.0173 145.166 22.102C144.006 22.4943 143.571 22.2539 143.229 21.0473C142.934 20.0053 142.529 19.5581 141.424 19.5876C140.551 19.6129 139.686 19.942 138.825 20.174C138.564 20.2457 138.34 20.444 138.234 20.3807L135.897 18.0182C136.07 17.6259 136.399 17.0099 136.61 16.3603C136.749 15.9299 136.783 15.4448 136.762 14.9892C136.703 13.8079 136.349 13.4114 135.205 13.0823C134.066 12.7574 133.779 12.2048 134.239 11.264C133.733 10.8717 133.168 10.5426 132.75 10.0785C132.21 9.47948 132.505 8.93526 133.113 8.55557C132.645 7.98182 132.121 7.50088 131.801 6.91448C131.341 6.07916 131.594 5.66151 132.611 5.40416C132.569 5.11729 132.51 4.8262 132.484 4.52666C132.417 3.69979 132.501 2.87291 133.282 2.40463C134.016 1.96166 134.75 2.27807 135.374 2.73791C135.817 3.06276 136.159 3.31588 136.796 3.10495C137.496 2.87291 137.842 3.47198 138.057 4.04151C139.087 4.00354 139.361 4.21448 139.618 5.16791C139.741 5.6151 139.69 6.12557 140.251 6.39979C140.428 6.48416 140.487 6.8976 140.521 7.17182C140.829 9.66088 140.694 12.1246 139.968 14.5378C139.901 14.7571 139.85 14.9807 139.795 15.2001C139.791 15.2128 139.821 15.2381 139.909 15.3478C141.213 13.3396 142.854 11.5171 141.993 8.84245C141.926 8.62729 141.892 8.3826 141.913 8.15479C142.01 7.16338 142.605 6.88073 143.761 7.31526Z" fill="#0F9D58"/>
<path d="M141.589 22.9454C140.889 19.4312 136.535 16.0731 133.033 15.5077C128.215 14.432 125.49 17.3809 123.069 20.5407C122.908 20.7474 122.959 21.047 123.174 21.1946C123.971 21.7431 124.765 22.3337 125.545 22.9707C125.954 23.304 125.549 23.9495 125.073 23.7217C124.06 23.2407 123.081 22.7935 122.132 22.3801C121.938 22.2957 121.71 22.3548 121.579 22.5277C118.799 26.2571 116.087 30.0371 113.365 33.8087C113.218 34.0154 113.264 34.2981 113.467 34.4457C113.973 34.817 114.479 35.2009 114.977 35.6059C115.395 35.9434 114.985 36.5973 114.5 36.3652C113.855 36.0573 113.222 35.7662 112.598 35.4835C112.399 35.3949 112.172 35.4582 112.041 35.6354C110.336 37.981 108.581 40.2887 106.898 42.647C104.548 45.9334 102.502 50.4854 103.633 52.1138C104.662 53.6031 109.818 52.7804 113.593 49.7935C114.623 48.9793 115.724 48.2579 116.8 47.5027C116.981 47.3762 117.044 47.1399 116.956 46.9374C116.694 46.3595 116.42 45.7731 116.137 45.174C115.909 44.6931 116.555 44.2881 116.888 44.7015C117.268 45.1656 117.631 45.6381 117.977 46.1106C118.124 46.3131 118.403 46.3595 118.609 46.2118C122.394 43.5245 126.195 40.8582 130.021 38.2341C130.203 38.1118 130.27 37.8798 130.181 37.6773C129.755 36.6985 129.295 35.686 128.798 34.6398C128.57 34.1631 129.215 33.7581 129.549 34.1673C130.228 35.0026 130.861 35.8548 131.443 36.7112C131.586 36.9221 131.869 36.977 132.076 36.8335C133.025 36.1881 133.97 35.5384 134.923 34.8971C139.248 31.9862 142.146 28.4846 141.589 22.9454Z" fill="#F57C00"/>
</g>
<defs>
<clipPath id="clip0_375_1217">
<rect width="54" height="54" fill="white" transform="translate(102)"/>
</clipPath>
</defs>
</svg>
