<svg width="64" height="64" viewBox="0 0 64 64" fill="none" xmlns="http://www.w3.org/2000/svg">
<path d="M64 32C64 49.6731 49.6731 64 32 64C14.3269 64 0 49.6731 0 32C0 14.3269 14.3269 0 32 0C49.6731 0 64 14.3269 64 32ZM8 32C8 45.2548 18.7452 56 32 56C45.2548 56 56 45.2548 56 32C56 18.7452 45.2548 8 32 8C18.7452 8 8 18.7452 8 32Z" fill="#ECEDEE"/>
<path d="M60 32C62.2091 32 64.0258 33.7978 63.7503 35.9897C63.2376 40.0699 61.9415 44.0261 59.9199 47.6359C57.2446 52.413 53.3883 56.4237 48.72 59.2845C44.0516 62.1453 38.7273 63.7604 33.2563 63.9753C27.7853 64.1903 22.3507 62.9979 17.4723 60.5122C12.5939 58.0265 8.43482 54.3307 5.39297 49.7782C2.35112 45.2258 0.528222 39.969 0.0986449 34.5107C-0.330932 29.0524 0.647179 23.5751 2.93942 18.6029C4.67156 14.8456 7.11029 11.4716 10.1099 8.6585C11.7213 7.1473 14.2435 7.56029 15.542 9.34752C16.8405 11.1348 16.4145 13.6159 14.8675 15.1929C12.9433 17.1544 11.3632 19.4389 10.2046 21.9522C8.48538 25.6814 7.7518 29.7893 8.07398 33.883C8.39617 37.9767 9.76334 41.9193 12.0447 45.3337C14.3261 48.748 17.4454 51.5199 21.1042 53.3842C24.763 55.2484 28.839 56.1427 32.9422 55.9815C37.0455 55.8203 41.0387 54.6089 44.54 52.4634C48.0412 50.3178 50.9334 47.3097 52.9399 43.7269C54.2921 41.3123 55.2116 38.6911 55.6674 35.9816C56.0339 33.803 57.7909 32 60 32Z" fill="#339AF0"/>
</svg>
