<svg width="64" height="64" viewBox="0 0 64 64" fill="none" xmlns="http://www.w3.org/2000/svg">
<path d="M64 32C64 49.6731 49.6731 64 32 64C14.3269 64 0 49.6731 0 32C0 14.3269 14.3269 0 32 0C49.6731 0 64 14.3269 64 32ZM8 32C8 45.2548 18.7452 56 32 56C45.2548 56 56 45.2548 56 32C56 18.7452 45.2548 8 32 8C18.7452 8 8 18.7452 8 32Z" fill="#ECEDEE"/>
<path d="M60 32C62.2091 32 64.0258 33.7978 63.7504 35.9897C63.0275 41.7426 60.7507 47.2183 57.1301 51.811C52.6802 57.4557 46.4595 61.4379 39.4703 63.1158C32.481 64.7938 25.1304 64.0698 18.6029 61.0606C12.0753 58.0513 6.75099 52.9321 3.48779 46.5277C0.224597 40.1233 -0.7874 32.8068 0.61487 25.7571C2.01714 18.7074 5.75201 12.3351 11.2177 7.66701C16.6833 2.99891 23.5614 0.306864 30.7437 0.0246711C36.5874 -0.20493 42.3555 1.17165 47.4347 3.96834C49.3698 5.03389 49.7565 7.56029 48.458 9.34752C47.1595 11.1348 44.6681 11.4963 42.6902 10.5123C39.1024 8.72739 35.1042 7.85952 31.0578 8.0185C25.6711 8.23015 20.5125 10.2492 16.4132 13.7503C12.314 17.2513 9.51286 22.0306 8.46115 27.3178C7.40945 32.6051 8.16845 38.0925 10.6158 42.8958C13.0632 47.6991 17.0565 51.5385 21.9522 53.7954C26.8478 56.0524 32.3608 56.5953 37.6027 55.3369C42.8446 54.0784 47.5102 51.0918 50.8476 46.8583C53.3547 43.678 55.0026 39.9333 55.6675 35.9816C56.034 33.8031 57.7909 32 60 32Z" fill="#875EC5"/>
</svg>
