<svg width="64" height="64" viewBox="0 0 64 64" fill="none" xmlns="http://www.w3.org/2000/svg">
<path d="M64 32C64 49.6731 49.6731 64 32 64C14.3269 64 0 49.6731 0 32C0 14.3269 14.3269 0 32 0C49.6731 0 64 14.3269 64 32ZM8 32C8 45.2548 18.7452 56 32 56C45.2548 56 56 45.2548 56 32C56 18.7452 45.2548 8 32 8C18.7452 8 8 18.7452 8 32Z" fill="#ECEDEE"/>
<path d="M60 32C62.2091 32 64.0258 33.7977 63.7503 35.9896C63.3109 39.4867 62.2955 42.8965 60.7369 46.0781C58.5899 50.4605 55.4691 54.2939 51.613 57.285C47.757 60.276 43.2679 62.3455 38.4892 63.3351C35.02 64.0536 31.4648 64.1891 27.9683 63.745C25.7768 63.4667 24.4873 61.2601 25.0367 59.1203C25.5861 56.9806 27.7694 55.7272 29.9706 55.914C32.2703 56.1092 34.5932 55.9722 36.8669 55.5013C40.4509 54.7591 43.8177 53.207 46.7098 50.9637C49.6018 48.7204 51.9424 45.8454 53.5527 42.5585C54.5742 40.4734 55.2845 38.2575 55.6674 35.9815C56.0339 33.803 57.7909 32 60 32Z" fill="#FCC419"/>
</svg>
