<svg width="156" height="54" viewBox="0 0 156 54" fill="none" xmlns="http://www.w3.org/2000/svg">
<rect width="54" height="54" transform="translate(102)" fill="white"/>
<path d="M144.75 8.99994H141.487C141.218 8.17982 140.798 7.41689 140.25 6.74994C139.613 6.03812 138.833 5.4695 137.96 5.08164C137.088 4.69378 136.142 4.49551 135.188 4.49994H122.858C121.895 4.48911 120.941 4.68427 120.06 5.07234C119.179 5.46041 118.392 6.0324 117.75 6.74994C117.186 7.4133 116.751 8.17645 116.467 8.99994H113.25C111.46 8.99994 109.743 9.7111 108.477 10.977C107.211 12.2428 106.5 13.9597 106.5 15.7499V42.7499C106.5 44.5402 107.211 46.257 108.477 47.5229C109.743 48.7888 111.46 49.4999 113.25 49.4999H144.75C146.54 49.4999 148.257 48.7888 149.523 47.5229C150.789 46.257 151.5 44.5402 151.5 42.7499V15.7499C151.5 13.9597 150.789 12.2428 149.523 10.977C148.257 9.7111 146.54 8.99994 144.75 8.99994ZM121.17 9.76494C121.381 9.52494 121.64 9.33258 121.931 9.20068C122.222 9.06877 122.538 9.00034 122.858 8.99994H135.142C135.462 9.00034 135.778 9.06877 136.069 9.20068C136.36 9.33258 136.619 9.52494 136.83 9.76494C137.042 10.0012 137.202 10.2797 137.299 10.5822C137.396 10.8847 137.428 11.2043 137.392 11.5199L136.267 20.5199C136.201 21.0687 135.935 21.5739 135.52 21.9391C135.105 22.3043 134.57 22.5039 134.017 22.4999H130.327L132.892 17.0999C133.1 16.5704 133.1 15.9817 132.892 15.4524C132.683 14.9231 132.282 14.4925 131.768 14.2472C131.255 14.002 130.668 13.9603 130.125 14.1306C129.582 14.3008 129.124 14.6704 128.843 15.1649L125.333 22.4999H123.983C123.43 22.5039 122.895 22.3043 122.48 21.9391C122.065 21.5739 121.799 21.0687 121.733 20.5199L120.608 11.5199C120.572 11.2043 120.604 10.8847 120.701 10.5822C120.798 10.2797 120.958 10.0012 121.17 9.76494ZM147 42.7499C147 43.3467 146.763 43.919 146.341 44.3409C145.919 44.7629 145.347 44.9999 144.75 44.9999H113.25C112.653 44.9999 112.081 44.7629 111.659 44.3409C111.237 43.919 111 43.3467 111 42.7499V15.7499C111 15.1532 111.237 14.5809 111.659 14.1589C112.081 13.737 112.653 13.4999 113.25 13.4999H116.332L117.278 21.0824C117.482 22.7248 118.282 24.2349 119.526 25.3258C120.771 26.4168 122.373 27.0126 124.028 26.9999H134.062C135.717 27.0126 137.319 26.4168 138.564 25.3258C139.808 24.2349 140.608 22.7248 140.812 21.0824L141.667 13.4999H144.75C145.347 13.4999 145.919 13.737 146.341 14.1589C146.763 14.5809 147 15.1532 147 15.7499V42.7499ZM133.5 35.9999H124.5C123.903 35.9999 123.331 36.237 122.909 36.6589C122.487 37.0809 122.25 37.6532 122.25 38.2499C122.25 38.8467 122.487 39.419 122.909 39.8409C123.331 40.2629 123.903 40.4999 124.5 40.4999H133.5C134.097 40.4999 134.669 40.2629 135.091 39.8409C135.513 39.419 135.75 38.8467 135.75 38.2499C135.75 37.6532 135.513 37.0809 135.091 36.6589C134.669 36.237 134.097 35.9999 133.5 35.9999Z" fill="#1864AB"/>
</svg>
