<svg width="156" height="54" viewBox="0 0 156 54" fill="none" xmlns="http://www.w3.org/2000/svg">
<path d="M140.779 30.375L136.594 29.5312L134.063 30.375L137.438 38.8125L140.812 50.625H147.562V44.7154C147.562 38.9424 144.906 33.7787 140.779 30.375ZM117.188 50.625L120.563 40.5L117.188 30.375C115.075 32.1204 113.375 34.311 112.208 36.7901C111.041 39.2691 110.437 41.9754 110.438 44.7154V50.625H117.188Z" fill="#E6E6E6"/>
<path d="M117.188 30.375L125.625 28.6875L134.062 30.375C137.736 30.375 140.812 33.4058 140.812 37.1301V50.625H117.188V30.375Z" fill="#F4F4F4"/>
<path d="M140.785 30.3753H131.531C132.106 30.7767 132.574 31.3124 132.895 31.9359C133.215 32.5594 133.379 33.2518 133.371 33.9528V36.771C132.204 36.771 131.086 36.3083 130.26 35.4845C129.434 34.6607 128.969 33.5431 128.966 32.3767C128.964 33.5431 128.498 34.6607 127.673 35.4845C126.847 36.3083 125.728 36.771 124.562 36.771V33.9528C124.562 32.4594 125.33 31.1718 126.469 30.3753H117.188L117.193 30.3585C120.499 27.608 124.665 26.1033 128.966 26.106C133.46 26.106 137.579 27.7091 140.785 30.3753Z" fill="#F92F60"/>
<path d="M124.729 26.2572V21.4309H133.184V26.2572L136.373 25.1603C137.858 24.6541 138.837 23.2534 138.837 21.7009V17.1447L138.543 17.1497L138.769 13.4491C138.837 12.8753 138.854 12.3016 138.803 11.7278L138.685 10.3103H119.498L119.363 11.7278C119.312 12.3016 119.329 12.8753 119.38 13.4491L119.65 17.5733L119.076 17.5834V21.7009C119.076 23.2703 120.072 24.6541 121.54 25.1603L124.729 26.2572Z" fill="#212121"/>
<path d="M123.094 17.7188C123.094 18.0512 123.028 18.3803 122.901 18.6874C122.774 18.9945 122.587 19.2736 122.352 19.5086C122.117 19.7437 121.838 19.9301 121.531 20.0573C121.224 20.1845 120.895 20.25 120.562 20.25C120.23 20.25 119.901 20.1845 119.594 20.0573C119.287 19.9301 119.008 19.7437 118.773 19.5086C118.538 19.2736 118.351 18.9945 118.224 18.6874C118.097 18.3803 118.031 18.0512 118.031 17.7188C118.031 17.0474 118.298 16.4036 118.773 15.9289C119.247 15.4542 119.891 15.1875 120.562 15.1875C121.234 15.1875 121.878 15.4542 122.352 15.9289C122.827 16.4036 123.094 17.0474 123.094 17.7188ZM139.969 17.7188C139.969 18.3901 139.702 19.0339 139.227 19.5086C138.753 19.9833 138.109 20.25 137.438 20.25C136.766 20.25 136.122 19.9833 135.648 19.5086C135.173 19.0339 134.906 18.3901 134.906 17.7188C134.906 17.0474 135.173 16.4036 135.648 15.9289C136.122 15.4542 136.766 15.1875 137.438 15.1875C138.109 15.1875 138.753 15.4542 139.227 15.9289C139.702 16.4036 139.969 17.0474 139.969 17.7188Z" fill="#F4C6AD"/>
<path d="M130.875 5.14648H127.112C122.895 5.14648 119.704 8.71049 120.19 13.1402L120.829 22.9496C121.265 26.2774 124.088 28.7715 127.414 28.7715H130.607C133.933 28.7715 136.756 26.2774 137.193 22.9496L137.797 13.1402C138.352 8.91467 135.109 5.14648 130.875 5.14648Z" fill="#FFD7C2"/>
<path d="M129 23.0273C128.072 23.0273 127.194 22.791 126.455 22.3961C126.197 22.2527 125.939 22.5581 126.094 22.8096C126.713 23.8018 127.78 24.4684 129 24.4684C130.221 24.4684 131.288 23.8018 131.907 22.8113C132.063 22.5581 131.787 22.2713 131.546 22.3961C130.762 22.8126 129.887 23.0294 129 23.0273Z" fill="#990838"/>
<path d="M122.714 14.61C122.871 14.8125 123.16 14.8463 123.36 14.6927L123.522 14.5864C124.238 14.1689 125.07 13.9959 125.893 14.0936C126.013 14.1041 126.132 14.0675 126.225 13.9916C126.319 13.9157 126.379 13.8064 126.393 13.687C126.407 13.5676 126.374 13.4475 126.301 13.352C126.228 13.2565 126.12 13.1933 126.001 13.1756C124.976 13.0533 123.939 13.2702 123.048 13.7933C122.969 13.8407 122.892 13.8914 122.817 13.9451L122.802 13.9553L122.797 13.9586L122.795 13.9603C122.747 13.9976 122.707 14.044 122.677 14.0969C122.647 14.1497 122.627 14.208 122.62 14.2684C122.612 14.3287 122.617 14.3899 122.633 14.4486C122.649 14.5072 122.677 14.5621 122.714 14.61ZM135.156 13.9586L135.158 13.962C135.247 14.0395 135.304 14.1484 135.316 14.2664C135.327 14.3844 135.293 14.5023 135.221 14.5959C135.148 14.6894 135.042 14.7515 134.925 14.7692C134.807 14.7869 134.688 14.7589 134.591 14.691L134.43 14.5864C133.715 14.1689 132.882 13.9959 132.059 14.0936C131.94 14.1041 131.821 14.0675 131.727 13.9916C131.634 13.9157 131.574 13.8064 131.56 13.687C131.546 13.5676 131.579 13.4475 131.652 13.352C131.725 13.2565 131.833 13.1933 131.951 13.1756C132.977 13.0533 134.014 13.2702 134.905 13.7933C134.983 13.8383 135.043 13.8765 135.085 13.908L135.149 13.9553L135.156 13.9586Z" fill="#212121"/>
<path d="M122.538 17.3302C122.791 16.284 123.736 15.5077 124.867 15.5077C126.031 15.5077 127.01 16.3346 127.212 17.4315C127.225 17.489 127.225 17.5487 127.211 17.606C127.197 17.6633 127.171 17.7168 127.133 17.7623C127.096 17.8078 127.049 17.8443 126.995 17.8688C126.941 17.8933 126.883 17.9054 126.824 17.904H122.993C122.69 17.904 122.453 17.6171 122.538 17.3302ZM135.413 17.3302C135.285 16.7984 134.978 16.3267 134.544 15.9938C134.11 15.6608 133.575 15.4867 133.028 15.5005C132.482 15.5143 131.956 15.7152 131.539 16.0697C131.123 16.4242 130.84 16.9108 130.739 17.4483C130.688 17.7015 130.874 17.9208 131.127 17.9208H134.958C135.262 17.9208 135.481 17.634 135.413 17.3302Z" fill="white"/>
<path d="M123.684 17.4992C123.684 16.6555 124.375 15.9636 125.219 15.9636C125.455 15.9641 125.688 16.0188 125.9 16.1236C126.112 16.2284 126.296 16.3805 126.44 16.568C126.583 16.7556 126.682 16.9736 126.728 17.2053C126.774 17.437 126.766 17.6762 126.704 17.9042H123.734C123.701 17.7718 123.684 17.6358 123.684 17.4992ZM134.264 17.4992C134.264 16.6555 133.572 15.9636 132.729 15.9636C132.492 15.9641 132.259 16.0188 132.048 16.1236C131.836 16.2284 131.651 16.3805 131.508 16.568C131.364 16.7556 131.266 16.9736 131.22 17.2053C131.174 17.437 131.182 17.6762 131.244 17.9042H134.214C134.247 17.7692 134.264 17.6342 134.264 17.4992Z" fill="#7D4533"/>
<path d="M125.22 16.6221C125.371 16.6205 125.52 16.6584 125.652 16.7321C125.784 16.8057 125.895 16.9125 125.974 17.0419C126.052 17.1714 126.095 17.319 126.099 17.4703C126.103 17.6216 126.067 17.7713 125.996 17.9046H124.443C124.372 17.7713 124.336 17.6216 124.34 17.4703C124.344 17.319 124.387 17.1714 124.466 17.0419C124.544 16.9125 124.655 16.8057 124.787 16.7321C124.919 16.6584 125.068 16.6205 125.22 16.6221ZM132.729 16.6221C132.578 16.6205 132.429 16.6584 132.296 16.7321C132.164 16.8057 132.053 16.9125 131.975 17.0419C131.897 17.1714 131.853 17.319 131.85 17.4703C131.846 17.6216 131.881 17.7713 131.953 17.9046H133.505C133.573 17.7865 133.606 17.6515 133.606 17.4996C133.606 17.0102 133.218 16.6221 132.729 16.6221Z" fill="black"/>
<path d="M124.966 16.8921C124.966 16.9637 124.937 17.0324 124.887 17.083C124.836 17.1336 124.767 17.1621 124.696 17.1621C124.624 17.1621 124.555 17.1336 124.505 17.083C124.454 17.0324 124.426 16.9637 124.426 16.8921C124.426 16.8205 124.454 16.7518 124.505 16.7012C124.555 16.6505 124.624 16.6221 124.696 16.6221C124.767 16.6221 124.836 16.6505 124.887 16.7012C124.937 16.7518 124.966 16.8205 124.966 16.8921ZM132.526 16.8921C132.526 16.9637 132.497 17.0324 132.447 17.083C132.396 17.1336 132.327 17.1621 132.256 17.1621C132.184 17.1621 132.115 17.1336 132.065 17.083C132.014 17.0324 131.986 16.9637 131.986 16.8921C131.986 16.8205 132.014 16.7518 132.065 16.7012C132.115 16.6505 132.184 16.6221 132.256 16.6221C132.327 16.6221 132.396 16.6505 132.447 16.7012C132.497 16.7518 132.526 16.8205 132.526 16.8921Z" fill="white"/>
<path d="M128.315 17.3539L127.358 20.3071C127.161 20.9112 127.628 21.5153 128.296 21.5153H129.704C130.37 21.5153 130.839 20.9112 130.642 20.3071L129.685 17.3539C129.488 16.7144 128.531 16.7144 128.315 17.3539Z" fill="#E5AF93"/>
<path d="M119.836 3.375H138.095C140.946 3.375 142.364 6.8175 140.356 8.82563L139.124 10.125V11.8125C139.141 12.15 138.786 12.4538 138.449 12.4538H119.465C119.127 12.4538 118.874 12.15 118.874 11.8125V10.125L117.575 8.82563C115.566 6.8175 116.984 3.375 119.836 3.375Z" fill="#E6E6E6"/>
<path d="M128.19 10.1754V6.12537C128.19 5.7035 128.527 5.34912 128.966 5.34912C129.388 5.34912 129.742 5.68662 129.742 6.12537V10.1754H128.19ZM124.595 10.1754H123.06L121.71 6.32787C121.541 5.85537 121.895 5.366 122.401 5.366C122.705 5.366 122.992 5.5685 123.093 5.85537L124.595 10.1754ZM133.32 10.1754H134.855L136.205 6.32787C136.374 5.85537 136.02 5.366 135.513 5.366C135.21 5.366 134.923 5.5685 134.821 5.85537L133.32 10.1754ZM136.273 36.4666C136.608 36.4666 136.93 36.3333 137.168 36.0959C137.405 35.8586 137.538 35.5367 137.538 35.201C137.538 34.8653 137.405 34.5434 137.168 34.3061C136.93 34.0687 136.608 33.9354 136.273 33.9354C135.937 33.9354 135.615 34.0687 135.378 34.3061C135.14 34.5434 135.007 34.8653 135.007 35.201C135.007 35.5367 135.14 35.8586 135.378 36.0959C135.615 36.3333 135.937 36.4666 136.273 36.4666ZM136.273 42.5922C136.608 42.5922 136.93 42.4589 137.168 42.2216C137.405 41.9842 137.538 41.6623 137.538 41.3266C137.538 40.991 137.405 40.669 137.168 40.4317C136.93 40.1943 136.608 40.061 136.273 40.061C135.937 40.061 135.615 40.1943 135.378 40.4317C135.14 40.669 135.007 40.991 135.007 41.3266C135.007 41.6623 135.14 41.9842 135.378 42.2216C135.615 42.4589 135.937 42.5922 136.273 42.5922ZM136.273 48.7347C136.608 48.7347 136.93 48.6014 137.168 48.3641C137.405 48.1267 137.538 47.8048 137.538 47.4691C137.538 47.1335 137.405 46.8115 137.168 46.5742C136.93 46.3368 136.608 46.2035 136.273 46.2035C135.937 46.2035 135.615 46.3368 135.378 46.5742C135.14 46.8115 135.007 47.1335 135.007 47.4691C135.007 47.8048 135.14 48.1267 135.378 48.3641C135.615 48.6014 135.937 48.7347 136.273 48.7347Z" fill="#D3D3D3"/>
<path d="M147.562 38.8125C148.491 38.8125 149.25 39.5044 149.25 40.3515V43.875H145.875V40.3515C145.892 39.5044 146.634 38.8125 147.562 38.8125Z" fill="#F4C6AD"/>
<path d="M148.101 27.2701C147.834 26.6753 147.4 26.1707 146.852 25.8174C146.304 25.464 145.665 25.2769 145.013 25.2788C144.361 25.2769 143.722 25.464 143.174 25.8174C142.626 26.1707 142.192 26.6753 141.925 27.2701C141.541 28.1155 141.343 29.0332 141.343 29.9616C141.343 30.8901 141.541 31.8077 141.925 32.6532C142.178 33.2101 142.583 33.6826 143.056 34.0369C143.511 34.3576 143.798 34.8807 143.798 35.4544V47.1994C143.798 47.8576 144.321 48.4313 144.979 48.4482C145.654 48.4651 146.211 47.9082 146.211 47.2332V35.4376C146.211 34.8807 146.498 34.3576 146.954 34.0201C147.443 33.6826 147.831 33.2101 148.084 32.6363C148.861 30.9319 148.861 28.9744 148.101 27.2701Z" fill="#F3C07B"/>
<path d="M145.015 26.4092C144.002 26.4092 143.091 26.9998 142.686 27.9111C142.112 29.1936 142.112 30.6786 142.686 31.9611C143.091 32.8723 144.002 33.4629 145.015 33.4629C146.027 33.4629 146.939 32.8723 147.344 31.9611C147.917 30.6786 147.917 29.1936 147.344 27.9111C146.922 26.9998 146.011 26.4092 145.015 26.4092Z" fill="#F3AD61"/>
<path d="M141.673 43.0312C141.687 42.3562 142.225 41.7656 142.855 41.7656H147.912C148.651 41.7656 149.25 42.4238 149.25 43.2338V49.1569C149.25 49.9669 148.651 50.625 147.912 50.625H142.855C142.225 50.625 141.687 50.1019 141.673 49.41C141.661 49.1997 141.701 48.9895 141.789 48.7982C141.878 48.6069 142.012 48.4403 142.18 48.3131C142.014 48.1947 141.879 48.0374 141.788 47.855C141.697 47.6727 141.652 47.4707 141.657 47.2669C141.657 46.8281 141.873 46.44 142.18 46.2206C142.014 46.1022 141.879 45.9449 141.788 45.7625C141.697 45.5802 141.652 45.3782 141.657 45.1744C141.657 44.7356 141.873 44.3475 142.18 44.1281C142.015 43.9981 141.883 43.8309 141.795 43.6403C141.707 43.4497 141.666 43.241 141.673 43.0312Z" fill="#FFD7C2"/>
</svg>
