<svg width="156" height="54" viewBox="0 0 156 54" fill="none" xmlns="http://www.w3.org/2000/svg">
<path d="M129 4.85156C124.246 4.85156 120.352 8.7461 120.352 13.5C120.352 16.2224 121.63 18.6612 123.615 20.25H115.5L105.375 50.625H152.625L142.5 20.25H134.385C136.37 18.6612 137.648 16.2224 137.648 13.5C137.648 8.7461 133.754 4.85156 129 4.85156ZM129 8.64844C131.702 8.64844 133.852 10.7981 133.852 13.5C133.852 16.2019 131.702 18.3516 129 18.3516C126.298 18.3516 124.148 16.2019 124.148 13.5C124.148 10.7981 126.298 8.64844 129 8.64844ZM120.329 30.0533H122.807V33.5615L126.38 30.0532H129.257L124.629 34.6042L129.734 39.6639H126.631L122.807 35.8789V39.6639H120.329V30.0533ZM132.978 32.2935C133.48 32.2934 133.922 32.3921 134.304 32.5894C134.686 32.7868 135.036 33.0979 135.354 33.5228V32.4544H137.671V38.9367C137.671 40.0954 137.304 40.9795 136.57 41.5889C135.841 42.2025 134.781 42.5094 133.39 42.5093C132.94 42.5093 132.504 42.475 132.083 42.4063C131.653 42.3353 131.229 42.2298 130.815 42.091V40.2949C131.219 40.5267 131.614 40.6984 132 40.81C132.386 40.9258 132.774 40.9838 133.165 40.9838C133.92 40.9838 134.474 40.8186 134.826 40.4881C135.178 40.1578 135.354 39.6407 135.354 38.9368V38.4411C135.036 38.8616 134.686 39.1706 134.304 39.368C133.922 39.5653 133.48 39.664 132.978 39.6642C132.098 39.6642 131.371 39.3187 130.796 38.6278C130.221 37.9326 129.933 37.0485 129.933 35.9757C129.933 34.8984 130.221 34.0165 130.796 33.3299C131.371 32.639 132.098 32.2935 132.978 32.2935ZM133.834 33.9542C133.358 33.9543 132.987 34.1302 132.721 34.4821C132.455 34.8341 132.322 35.332 132.322 35.9757C132.322 36.6366 132.45 37.1386 132.708 37.4818C132.965 37.8209 133.341 37.9905 133.834 37.9905C134.315 37.9904 134.688 37.8144 134.954 37.4625C135.221 37.1106 135.354 36.615 135.354 35.9756C135.354 35.3318 135.22 34.834 134.954 34.4822C134.688 34.1302 134.315 33.9542 133.834 33.9542H133.834Z" fill="#C92A2A"/>
</svg>
